<?xml version="1.0"?><svg width="1000" height="522" xmlns="http://www.w3.org/2000/svg" xmlns:xlink="http://www.w3.org/1999/xlink">
 <title>tractor</title>
 <defs>
  <linearGradient id="linearGradient2453">
   <stop id="stop2455" stop-color="#1a1c1a" offset="0"/>
   <stop id="stop2457" stop-color="#c3c6c6" offset="1"/>
  </linearGradient>
  <linearGradient id="linearGradient3217">
   <stop id="stop3219" stop-color="#000000" offset="0"/>
   <stop id="stop3221" stop-color="#000000" stop-opacity="0" offset="1"/>
  </linearGradient>
  <linearGradient id="linearGradient3201">
   <stop id="stop3203" stop-color="#373737" offset="0"/>
   <stop id="stop3205" stop-color="#000000" stop-opacity="0" offset="1"/>
  </linearGradient>
  <linearGradient id="linearGradient3176">
   <stop id="stop3178" stop-color="#000000" offset="0"/>
   <stop id="stop3180" stop-color="#1b140f" offset="1"/>
  </linearGradient>
  <radialGradient id="radialGradient3182" gradientUnits="userSpaceOnUse" gradientTransform="matrix(0.98756 -2.39406 1.22898 0.506957 -573.311 657.821)" cx="182.227" cy="468.336" r="120.472" fx="182.227" fy="468.336" xlink:href="#linearGradient3176"/>
  <linearGradient id="linearGradient3207" x1="0.720263" y1="-Infinity" x2="0.106386" y2="Infinity" xlink:href="#linearGradient3201"/>
  <linearGradient id="linearGradient3211" x1="0.720263" y1="-Infinity" x2="0.106386" y2="Infinity" xlink:href="#linearGradient3201"/>
  <linearGradient id="linearGradient3223" x1="2.28426" y1="-Infinity" x2="0.126607" y2="Infinity" xlink:href="#linearGradient3217"/>
  <linearGradient id="linearGradient3227" x1="2.24406" y1="-Infinity" x2="0.106386" y2="Infinity" xlink:href="#linearGradient3201"/>
  <linearGradient id="linearGradient3237" x1="1.54791" y1="-Infinity" x2="0.126607" y2="Infinity" xlink:href="#linearGradient3217"/>
  <linearGradient id="linearGradient3247" x1="-0.228134" y1="Infinity" x2="0.827975" y2="-Infinity" xlink:href="#linearGradient3217"/>
  <linearGradient id="linearGradient2459" x1="1.0305" y1="0.413648" x2="-0.804117" y2="0.412877" xlink:href="#linearGradient2453"/>
 </defs>
 <metadata id="metadata7">image/svg+xml</metadata>
 <g>
  <title>Layer 1</title>
  <path id="svg_32" fill="#1a1a1a" stroke-miterlimit="4" stroke-width="0" d="m317.380005,330.839996a55,55 0 1 1 -110,0a55,55 0 1 1 110,0z"/>
  <path id="path2451" fill="url(#linearGradient2459)" fill-rule="evenodd" stroke-width="1px" d="m743.299988,69.511902l-2.156982,4.745499l-3.02002,163.502594c0,0 1.002991,3.786011 2.588013,4.74501c2.21698,1.341995 6.432983,1.809998 8.627991,0.431992c1.374023,-0.862991 2.588989,-4.746002 2.588989,-4.746002l2.588013,-163.070793l-1.724976,-4.745499l0,-15.961903c0,0 -2.504028,-2.349499 -3.882996,-2.588501c-1.577026,-0.273197 -5.177002,1.294201 -5.177002,1.294201l-0.43103,16.393402l0,0l0,0l0,0z"/>
  <g id="layer3">
   <path id="path2396" fill="#000000" stroke-miterlimit="4" stroke-width="0" d="m883.494995,282.239014a80.637497,80.013298 0 1 1 -161.275024,0a80.637497,80.013298 0 1 1 161.275024,0z"/>
  </g>
  <path id="path3275" fill="#666666" fill-rule="evenodd" stroke-width="1px" d="m560.419006,71.401299l64.925964,1.928505l1.285034,12.213699l54.640991,-0.642799l2.570984,119.5653l12.856018,0l-4.499023,-124.707901l25.070007,-16.713501l0,-20.5704l-158.777954,1.928398l1.927979,26.998699z"/>
  <path id="path3236" fill="#434345" fill-rule="evenodd" stroke-width="1px" d="m570.737976,135.947998c1.725037,-4.313995 14.667053,-21.57 14.667053,-21.57l3.019958,-5.177002l-5.607971,-25.021294l3.450989,-8.196701l5.177002,-4.314102l20.708008,-3.882599l6.039001,6.4711l0,10.353699l2.588989,9.922302l-3.882996,1.725601l0,4.745995l-0.43103,4.745003l-4.745972,3.450996l-2.588013,1.726006l0.862976,12.511002l6.902039,12.942001l10.784973,6.470993l16.394043,10.785004l4.313965,4.313995l0,10.354004l12.51001,-24.589996l3.882996,-3.452011l3.882996,1.295013l1.294006,3.450989l-4.745972,10.354004l-0.43103,9.059006l2.588013,2.156998l5.609009,4.744995l9.921997,17.257004l9.490967,0.431l10.354004,-15.962006l9.48999,6.040009l-7.332947,12.942001l2.587952,1.293991l17.256042,-11.216003l3.450989,48.317001l-59.10199,-0.431l-47.02301,-73.770996l-52.200012,-13.804993l0.862976,-6.471008z"/>
  <path id="path2390" fill="#007f00" fill-rule="evenodd" stroke-width="1.05095px" d="m592.940979,279.084991l76.330994,29.584015l160.498047,0.740997l47.346985,-71.410004c0,0 12.085999,-41.537003 -0.658997,-66.798004c-4.353027,-8.626999 -11.914001,-11.348999 -21.507019,-12.50499c-22.01001,-2.651001 -80.062988,-6.934006 -130.271973,-6.686005c1.086975,17.410995 4.328003,51.376999 4.408997,77.869003c-16.262024,0.774994 -43.049011,1.235992 -49.858032,0.904999c-11.70697,-23.742004 -36.172974,-71.234009 -51.297974,-83.264008c-22.549988,-3.223999 -67.780029,-8.503998 -89.950012,-7.738998c-20.302979,0.699997 -55.899994,-4.567993 -66.803009,11.087006c-5.975983,8.580002 -0.866974,15.104996 -5.135986,24.649994c-4.196014,9.380005 -22.826996,25.53801 -22.826996,25.53801l39.858002,21.43399l109.866974,56.593994z"/>
  <path id="path2400" fill="#1a1a1a" fill-rule="evenodd" stroke-width="0.965573px" d="m661.554016,24.4081c-41.866028,-0.0791 -85.704041,1.6143 -98.407043,5.2187c-8.458984,2.400398 -11.67395,17.168499 -11.67395,17.168499l-8.669006,94.244694c31.252014,2.493011 81.677002,5.262024 86.967957,9.618011c18.847046,15.514999 50.032043,83.343994 50.032043,83.343994l53.406006,0l-8.906006,-173.437698l9.875,-7.6875l2.937012,-10.795502c0,0 -13.202026,-13.0679 -18.756042,-13.495199c-16.539978,-1.272499 -31.687012,-4.130499 -56.805969,-4.177999zm-96.468994,28l57.781006,0.6562c0,0 0.519958,8.125801 1.437988,92.624695c-5.781006,-2.492996 -34.515991,-5.099991 -62.812988,-7.593002l3.593994,-85.687893zm149.718994,0.4375l10.717957,175.906399l-47.311951,0.061996c0,0 -22.496033,-52.981003 -47.188049,-79.75l-1.717957,-95.624695l85.5,-0.5937z"/>
  <path id="path2404" fill="url(#radialGradient3182)" fill-rule="evenodd" stroke-width="1px" d="m441.118988,203.697006c1.049011,-4.811005 8.424011,-13.019012 16.082001,-21.443008c7.65802,-8.423996 30.062012,-32.459991 52.84201,-36.759995c30.842987,-5.820999 80.496002,1.037003 105.68399,3.830002c4.046021,0.447998 9.911011,1.19899 13.018982,3.828995c14.771057,12.5 39.047058,56.817001 50.544006,83.475006c6.957031,16.128998 -9.190002,72.753006 -9.190002,72.753006l-76.58197,-29.188019l-124.063995,-63.47699l-16.087006,-11.475998c0,0 -4.085999,2.220993 -5.971008,2.041992c-2.158997,-0.205002 -6.73999,-1.466003 -6.277008,-3.584991z"/>
  <path id="path3314" fill="none" fill-rule="evenodd" stroke="#000000" stroke-width="1px" d="m729.434998,185.647995l151.296021,0"/>
  <path id="path3318" fill="#007f00" fill-rule="evenodd" stroke-width="1px" d="m551.65802,48.071201l186.218994,-4.900501c0,0 -5.419006,-8.523399 -8.166992,-10.890099c-4.317993,-3.718302 -11.187012,-8.460501 -16.880005,-8.712002c-36.052002,-1.592699 -86.666992,-2.752699 -123.601013,0.5445c-9.416016,0.840599 -23.822021,-0.6635 -31.036987,5.445c-4.494995,3.805899 -6.533997,18.513102 -6.533997,18.513102z"/>
  <path id="path2437" fill="#18181a" fill-rule="evenodd" stroke="#000000" stroke-width="1px" d="m525.440002,140.261993l7.333984,-76.358292l20.707031,-15.962002l0.862976,-12.9422l-16.393005,-0.862801l-0.862976,12.510799l1.726013,-1.2943l-9.491028,5.608299l-4.745972,0.215702l-0.43103,10.785099l4.744995,0.647102"/>
  <g id="layer4" display="inline">
   <path id="path2392" fill="#7f7f7f" fill-rule="evenodd" stroke-width="0.918886px" d="m561.504028,138.154007l3.602966,-85.684406l57.78302,0.6679c0,0 0.498962,8.097198 1.416992,92.596493c-5.781006,-2.493988 -34.507019,-5.08699 -62.802979,-7.579987z"/>
   <path id="path2402" fill="#7f7f7f" fill-rule="evenodd" stroke-width="1.02239px" d="m631.14801,149.095993l-1.721985,-95.614193l85.492981,-0.580101l10.708984,175.883305l-47.320007,0.060989c0,0 -22.468994,-52.980988 -47.159973,-79.75z"/>
   <path id="path3210" fill="#7f7f7f" fill-rule="evenodd" stroke="#000000" stroke-width="1px" d="m533.205017,63.903702l-7.765015,75.496292l17.687988,0.431l8.627991,-89.732292"/>
   <path id="path3221" fill="#7f7f7f" fill-rule="evenodd" stroke="#cccccc" stroke-miterlimit="4" stroke-width="0.3" d="m536.656982,45.784599c0,0 -4.890991,0.321301 -4.529968,-3.2355c0.401978,-3.962799 -0.246033,-3.9454 0.216003,-5.6082c0.862976,-3.111 5.177002,-3.019897 5.177002,-3.019897l-0.863037,11.863598z"/>
   <path id="path3232" fill="#7f7f7f" fill-rule="evenodd" stroke="#cccccc" stroke-miterlimit="4" stroke-width="0.242792" d="m523.729004,62.310902c0,0 -3.619019,0.538399 -3.384033,-3.035503c0.263,-3.981899 -0.159973,-3.964397 0.141052,-5.6353c0.561951,-3.1259 3.373962,-3.034397 3.373962,-3.034397l-0.130981,11.7052z"/>
  </g>
  <path id="svg_23" fill="#7f7f7f" fill-rule="evenodd" stroke-width="1px" transform="rotate(-8.39296 386.533 272.504)" d="m298.772003,283.701996l175.455994,-4.210999c0,0 -5.105988,-7.325012 -7.695007,-9.359009c-4.067993,-3.194977 -10.539978,-7.269989 -15.903992,-7.485992c-33.968994,-1.368988 -81.65799,-2.365997 -116.458008,0.468018c-8.871002,0.721985 -22.444977,-0.571014 -29.242981,4.678986c-4.235016,3.269989 -6.156006,15.908997 -6.156006,15.908997z"/>
  <path id="path2383" fill="#1a1a1a" stroke-miterlimit="4" stroke-width="0" d="m665.713989,278.864014a112.857002,112.857002 0 1 1 -225.713989,0a112.857002,112.857002 0 1 1 225.713989,0z"/>
  <path id="path2387" fill="#1a1a1a" stroke-miterlimit="4" stroke-width="0" d="m962,298.864014a90,90 0 1 1 -180,0a90,90 0 1 1 180,0z"/>
  <path id="path3204" fill="#ffffff" stroke-miterlimit="4" stroke-width="0" d="m617.539001,279.403992a65.022499,65.022499 0 1 1 -130.045013,0a65.022499,65.022499 0 1 1 130.045013,0z"/>
  <path id="path3206" fill="#ffffff" stroke-miterlimit="4" stroke-width="0" d="m923.552002,299.627014a50.137798,50.137798 0 1 1 -100.275024,0a50.137798,50.137798 0 1 1 100.275024,0z"/>
  <path id="path2403" fill="#000000" stroke-miterlimit="4" stroke-width="0" d="m606.150024,278.265015a53.633301,53.633301 0 1 1 -107.266022,0a53.633301,53.633301 0 1 1 107.266022,0z"/>
  <path id="path2405" fill="#000000" stroke-miterlimit="4" stroke-width="0" d="m906.745972,301.042999a40.457001,42.165401 0 1 1 -80.914001,0a40.457001,42.165401 0 1 1 80.914001,0z"/>
  <path id="path2407" fill="#ffff00" fill-rule="evenodd" stroke-width="1px" d="m524.044006,227.014008c0,0 -0.682007,7.514999 6.151978,7.514999c6.833008,0 53.299011,5.244995 53.299011,5.244995l7.747986,-5.462006l11.386047,21.175003l-5.015015,4.787994l-5.921997,48.054016l4.104004,6.381989l-9.112,9.110992l-9.111023,-4.556l-58.539001,-6.148987l-8.656982,2.731995l-9.112,-11.389008l7.063995,-6.158997l6.376007,-49.653l-5.692017,-9.792999l15.031006,-11.840988z"/>
  <path id="path3199" fill="none" stroke="url(#linearGradient3207)" stroke-miterlimit="4" stroke-width="2.10424" d="m610.479004,278.40799a57.686401,57.686401 0 1 1 -115.373016,0a57.686401,57.686401 0 1 1 115.373016,0z"/>
  <path id="path3209" fill="#ffffff" stroke="url(#linearGradient3211)" stroke-miterlimit="4" stroke-width="2.10424" d="m612.90802,278.681a60.3885,60.3885 0 1 1 -120.777008,0a60.3885,60.3885 0 1 1 120.777008,0z"/>
  <path id="path3213" fill="url(#linearGradient3223)" stroke-miterlimit="4" stroke-width="2.10424" d="m580.309998,275.226013a27.062799,27.062799 0 1 1 -54.125977,0a27.062799,27.062799 0 1 1 54.125977,0z"/>
  <path id="path3225" fill="#000000" stroke="url(#linearGradient3227)" stroke-miterlimit="4" stroke-width="20.268" d="m569.497009,275.14801a16.7048,16.7048 0 1 1 -33.408997,0a16.7048,16.7048 0 1 1 33.408997,0z"/>
  <path id="path3233" fill="#ffff00" fill-rule="evenodd" stroke-width="1px" d="m853.343994,267.256012l32.434021,5.294983l9.266968,-3.971008l9.929016,11.253021l-8.60498,7.281006l-5.295044,33.757996l5.957031,10.589996l-7.281006,8.60498l-7.942993,-3.970978l-37.72998,-5.296021l-5.957031,4.634003l-9.266968,-13.238983l1.985962,-6.619019l7.281006,-39.714996l-3.971008,-4.632996l13.900024,-9.928986l5.294983,5.957001z"/>
  <path id="path3231" fill="none" stroke="#000000" stroke-miterlimit="4" stroke-width="2.14419" d="m912.304016,300.855011a43.006802,43.1483 0 1 1 -86.013,0a43.006802,43.1483 0 1 1 86.013,0z"/>
  <path id="path3229" fill="#ffffff" stroke="#000000" stroke-miterlimit="4" stroke-width="2.14419" d="m915.177979,300.493011a44.594601,44.736198 0 1 1 -89.190002,0a44.594601,44.736198 0 1 1 89.190002,0z"/>
  <path id="path3235" fill="url(#linearGradient3237)" stroke-miterlimit="4" stroke-width="2.10424" d="m890.575012,300.53299a27.062799,27.062799 0 1 1 -54.126038,0a27.062799,27.062799 0 1 1 54.126038,0z"/>
  <path id="path3239" fill="#ffffff" stroke-miterlimit="4" stroke-width="2.10424" d="m882.861023,301.65799a22.4023,22.4023 0 1 1 -44.804993,0a22.4023,22.4023 0 1 1 44.804993,0z"/>
  <path id="path3245" fill="url(#linearGradient3247)" stroke-miterlimit="4" stroke-width="2.10424" d="m874.182983,301.819a14.2062,14.2062 0 1 1 -28.412964,0a14.2062,14.2062 0 1 1 28.412964,0z"/>
  <path id="path3249" fill="#000000" stroke-miterlimit="4" stroke-width="2.10424" d="m875.307007,299.569a13.4027,13.4027 0 1 1 -26.804993,0a13.4027,13.4027 0 1 1 26.804993,0z"/>
  <path id="svg_3" fill="#000000" stroke="#000000" stroke-dasharray="null" stroke-linecap="null" stroke-linejoin="null" stroke-width="1px" d="m730,167.455002c0,0 0.72699,23.313995 0.72699,23.313995c0,0 150.728027,0.958008 150.728027,0.958008c0,0 -2,-12.455002 -13.455017,-17.246002c-11.455017,-4.791 -138,-7.026001 -138,-7.026001z"/>
  <path id="svg_7" fill="#000000" stroke-dasharray="null" stroke-linecap="null" stroke-linejoin="null" stroke-width="1.05095px" d="m853.771973,187.897995l22.410034,0.557007c-3.796021,-7.511002 -1.163025,-11.404999 -8.082031,-11.682999l-135.008972,-6.95401l110.945984,10.014008l9.734985,8.065994z"/>
  <rect id="svg_9" fill="#008000" stroke-dasharray="null" stroke-linecap="null" stroke-linejoin="null" stroke-width="1px" x="11" y="152" width="193" height="0"/>
  <rect id="svg_10" fill="#007f00" stroke-dasharray="null" stroke-linecap="null" stroke-linejoin="null" stroke-width="1px" x="53" y="194" width="299" height="119"/>
  <g id="svg_20">
   <path id="svg_12" fill="#1a1a1a" stroke-miterlimit="4" stroke-width="0" d="m346.380005,334.76001a55,55 0 1 1 -110,0a55,55 0 1 1 110,0z"/>
   <path id="svg_13" fill="#ffffff" stroke-miterlimit="4" stroke-width="0" d="m322.884003,335.226013a30.639799,30.639799 0 1 1 -61.278992,0a30.639799,30.639799 0 1 1 61.278992,0z"/>
   <path id="svg_14" fill="#000000" stroke-miterlimit="4" stroke-width="0" d="m312.614014,336.09201a24.7237,25.7677 0 1 1 -49.448029,0a24.7237,25.7677 0 1 1 49.448029,0z"/>
   <path id="svg_15" fill="#ffff00" fill-rule="evenodd" stroke-width="1px" d="m279.979004,315.444l19.820984,3.235992l5.663025,-2.427002l6.067993,6.877014l-5.259003,4.449005l-3.235992,20.630005l3.640991,6.471985l-4.450012,5.259003l-4.854004,-2.427002l-23.056976,-3.237l-3.640015,2.832001l-5.664001,-8.089996l1.21402,-4.045013l4.449982,-24.269989l-2.427002,-2.832001l8.494019,-6.067017l3.235992,3.640015z"/>
   <path id="svg_16" fill="none" stroke="#000000" stroke-miterlimit="4" stroke-width="2.14419" d="m316.01001,335.97699a26.2819,26.368401 0 1 1 -52.563019,0a26.2819,26.368401 0 1 1 52.563019,0z"/>
   <path id="svg_17" fill="#ffffff" stroke="#000000" stroke-miterlimit="4" stroke-width="2.14419" d="m319.497009,335.755005a27.2523,27.3388 0 1 1 -54.505005,0a27.2523,27.3388 0 1 1 54.505005,0z"/>
   <path id="svg_18" fill="url(#linearGradient3237)" stroke-miterlimit="4" stroke-width="2.10424" d="m308.78299,335.779999a16.538401,16.538401 0 1 1 -33.076996,0a16.538401,16.538401 0 1 1 33.076996,0z"/>
   <path id="svg_19" fill="#000000" stroke-miterlimit="4" stroke-width="2.10424" d="m300.434998,337.20401a8.19054,8.19054 0 1 1 -16.381012,0a8.19054,8.19054 0 1 1 16.381012,0z"/>
  </g>
  <g id="svg_21">
   <path id="svg_22" fill="#1a1a1a" stroke-miterlimit="4" stroke-width="0" d="m157.380005,334.76001a55,55 0 1 1 -110.000004,0a55,55 0 1 1 110.000004,0z"/>
   <path id="svg_24" fill="#ffffff" stroke-miterlimit="4" stroke-width="0" d="m133.884003,335.226013a30.639799,30.639799 0 1 1 -61.278999,0a30.639799,30.639799 0 1 1 61.278999,0z"/>
   <path id="svg_25" fill="#000000" stroke-miterlimit="4" stroke-width="0" d="m123.613998,336.09201a24.7237,25.7677 0 1 1 -49.447998,0a24.7237,25.7677 0 1 1 49.447998,0z"/>
   <path id="svg_26" fill="#ffff00" fill-rule="evenodd" stroke-width="1px" d="m90.978996,315.444l19.821007,3.235992l5.662994,-2.427002l6.068001,6.877014l-5.258995,4.449005l-3.236,20.630005l3.640999,6.471985l-4.450005,5.259003l-4.853996,-2.427002l-23.056999,-3.237l-3.639999,2.832001l-5.664001,-8.089996l1.213997,-4.045013l4.450005,-24.269989l-2.427002,-2.832001l8.493996,-6.067017l3.236,3.640015l0,0z"/>
   <path id="svg_27" fill="none" stroke="#000000" stroke-miterlimit="4" stroke-width="2.14419" d="m127.010002,335.97699a26.2819,26.368401 0 1 1 -52.563004,0a26.2819,26.368401 0 1 1 52.563004,0z"/>
   <path id="svg_28" fill="#ffffff" stroke="#000000" stroke-miterlimit="4" stroke-width="2.14419" d="m130.496994,335.755005a27.2523,27.3388 0 1 1 -54.504997,0a27.2523,27.3388 0 1 1 54.504997,0z"/>
   <path id="svg_29" fill="url(#linearGradient3237)" stroke-miterlimit="4" stroke-width="2.10424" d="m119.782997,335.779999a16.538401,16.538401 0 1 1 -33.076996,0a16.538401,16.538401 0 1 1 33.076996,0z"/>
   <path id="svg_30" fill="#000000" stroke-miterlimit="4" stroke-width="2.10424" d="m111.434998,337.20401a8.19054,8.19054 0 1 1 -16.380997,0a8.19054,8.19054 0 1 1 16.380997,0z"/>
  </g>
 </g>
</svg>